<svg xmlns="http://www.w3.org/2000/svg" viewBox="0 0 800 420" role="img" aria-labelledby="title desc">
  <title id="title">Stylized sports car silhouette</title>
  <desc id="desc">Side profile outline suggesting a compact coupe, for Abstract Garage branding.</desc>
  <defs>
    <linearGradient id="g" x1="0%" y1="0%" x2="100%" y2="0%">
      <stop offset="0%" stop-color="#818cf8"/>
      <stop offset="100%" stop-color="#a855f7"/>
    </linearGradient>
    <filter id="glow" x="-20%" y="-20%" width="140%" height="140%">
      <feGaussianBlur stdDeviation="6" result="b"/>
      <feMerge>
        <feMergeNode in="b"/>
        <feMergeNode in="SourceGraphic"/>
      </feMerge>
    </filter>
  </defs>
  <rect width="800" height="420" fill="none"/>
  <path fill="none" stroke="url(#g)" stroke-width="3" filter="url(#glow)" d="M120 260h40l28-72c8-22 28-38 52-42l220-24c36-4 72 8 96 36l84 96c10 12 16 28 16 44v36H120v-74z"/>
  <path fill="rgba(129,140,232,0.08)" stroke="url(#g)" stroke-width="1.5" d="M200 188l60-8 140 4 120 20 60 56"/>
  <circle cx="220" cy="268" r="38" fill="#111" stroke="url(#g)" stroke-width="2"/>
  <circle cx="560" cy="268" r="38" fill="#111" stroke="url(#g)" stroke-width="2"/>
  <circle cx="220" cy="268" r="12" fill="#27272a"/>
  <circle cx="560" cy="268" r="12" fill="#27272a"/>
</svg>
