<svg xmlns="http://www.w3.org/2000/svg" viewBox="0 0 640 360" role="img" aria-labelledby="t">
  <title id="t">Cooling breeze abstract</title>
  <defs>
    <linearGradient id="g" x1="0%" y1="0%" x2="0%" y2="100%">
      <stop offset="0%" stop-color="#a5b4fc"/>
      <stop offset="100%" stop-color="#6366f1"/>
    </linearGradient>
  </defs>
  <rect width="640" height="360" fill="#0c0c0f"/>
  <path fill="none" stroke="url(#g)" stroke-width="3" stroke-linecap="round" d="M120 140c80 0 80 80 160 80s80-80 160-80 80 80 160 80"/>
  <path fill="none" stroke="#52525b" stroke-width="2" stroke-linecap="round" d="M140 200c60 0 60 60 120 60s60-60 120-60 60 60 120 60 60-60 120-60"/>
  <path fill="none" stroke="#3f3f46" stroke-width="2" stroke-linecap="round" d="M160 240c40 0 40 40 80 40s40-40 80-40 40 40 80 40 40-40 80-40 40 40 80 40"/>
</svg>
